<?xml version="1.0" encoding="utf-8"?>
<svg viewBox="97.211 27.703 505.874 505.394" width="505.874pt" height="505.394pt" xmlns="http://www.w3.org/2000/svg">
  <path d="M 162.49 306.07 C 140.627 301.023 110.357 295.98 100.267 336.34 C 88.494 390.152 113.72 492.73 125.494 517.96 C 140.631 551.593 159.127 353.16 162.49 332.98 L 337.38 507.87 C 354.196 524.686 372.696 533.097 396.239 533.097 C 418.102 533.097 439.962 524.687 455.098 507.87 L 577.858 386.79 C 594.674 368.29 603.085 349.794 603.085 326.251 C 603.085 304.388 594.675 284.208 577.858 267.392 L 396.238 85.772 C 392.875 80.725 386.148 80.725 382.785 85.772 L 374.375 92.499 C 369.328 70.636 360.922 45.413 349.148 33.64 C 335.695 21.867 317.195 25.229 310.468 65.593 C 305.421 92.499 307.105 126.132 312.151 156.405 L 162.49 306.07 Z M 359.25 107.63 L 330.66 136.22 C 328.976 114.357 327.297 90.814 330.66 68.954 C 340.75 15.142 359.25 99.224 359.25 107.634 L 359.25 107.63 Z M 317.207 179.942 C 318.891 188.352 320.57 195.079 323.934 200.122 C 317.207 211.895 325.617 227.028 340.75 227.028 C 365.977 225.344 365.977 191.712 342.433 190.032 C 339.07 181.622 337.386 173.216 334.023 163.126 L 389.519 107.63 L 562.729 282.52 C 577.866 292.61 584.592 319.516 581.229 326.243 L 177.619 319.516 L 317.207 179.942 Z" fill-rule="evenodd"/>
</svg>