<?xml version="1.0" encoding="utf-8"?>
<svg viewBox="98.009 28.788 504.008 502.419" width="504.008pt" height="502.419pt" xmlns="http://www.w3.org/2000/svg">
  <path d="M 563.43 55.234 C 535.289 29.004 508.621 21.425 472.496 36.379 C 440.531 49.613 415.531 78.504 390.332 101.496 C 352.398 136.098 315.824 172.184 279.902 208.856 C 245.211 244.27 211.129 280.29 177.732 316.926 C 162.83 333.274 146.029 349.457 133.146 367.594 C 132.646 368.125 132.181 368.719 131.787 369.465 C 131.255 370.239 130.931 371 130.689 371.754 C 121.826 389.613 118.162 411.445 113.748 430.496 C 106.693 460.984 100.83 491.863 98.041 523.058 C 97.51 528.996 103.76 531.839 108.58 531.089 C 157.271 523.484 205.353 512.71 253.87 504.148 C 273.608 500.664 282.206 487.039 296.034 472.75 C 319.194 448.805 342.233 424.734 365.288 400.684 C 408.14 355.973 450.983 311.25 494.538 267.224 C 530.44 230.931 581.202 191.552 598.318 141.594 C 610.951 104.711 589.228 79.266 563.443 55.231 L 563.43 55.234 Z M 443.09 210.194 C 439.149 206.167 435.16 202.175 431.172 198.194 C 437.664 193.018 443.75 187.409 449.524 181.456 C 449.719 181.663 449.922 181.858 450.118 182.065 C 453.618 185.776 456.973 189.468 460.278 193.135 C 455.024 199.296 449.298 204.987 443.09 210.194 L 443.09 210.194 Z M 468.684 202.479 C 472.375 206.589 476.071 210.639 479.821 214.624 C 474.27 220.062 468.973 225.733 463.883 231.597 C 459.863 227.449 455.824 223.304 451.793 219.144 C 457.871 214.043 463.504 208.488 468.684 202.48 L 468.684 202.479 Z M 422.266 189.436 C 418.832 186.088 415.41 182.733 411.918 179.452 C 417.656 173.257 423.52 167.182 429.512 161.229 C 433.321 164.948 437.071 168.721 440.809 172.518 C 434.973 178.537 428.829 184.209 422.266 189.436 L 422.266 189.436 Z M 402.664 171.057 C 398.555 167.346 394.394 163.71 390.184 160.143 C 396.594 154.147 402.723 147.87 408.45 141.205 C 412.497 144.967 416.536 148.744 420.54 152.557 C 414.454 158.596 408.497 164.76 402.665 171.057 L 402.664 171.057 Z M 390.461 124.627 C 393.414 127.322 396.359 130.014 399.305 132.721 C 393.418 139.541 387.141 145.975 380.535 152.096 C 377.039 149.303 373.445 146.658 369.867 143.987 C 376.691 137.494 383.57 131.049 390.461 124.628 L 390.461 124.627 Z M 244.751 269.337 C 275.54 236.868 306.899 205.028 338.864 173.806 C 347.868 181.685 356.919 189.533 365.973 197.4 C 334.368 229.123 301.953 260.259 271.395 292.994 C 244.137 322.17 219.489 352.795 190.926 380.803 C 186.117 379.405 179.871 379.217 176.356 378.584 C 167.2 376.932 158.001 375.534 148.778 374.323 C 175.735 336.456 213.024 302.788 244.751 269.343 L 244.751 269.337 Z M 246.7 488.597 C 225.247 493.968 203.309 498.421 181.262 502.406 C 168.149 485.5 147.129 464.511 126.887 448.179 C 127.856 443.761 128.797 439.332 129.817 434.929 C 133.422 419.37 136.278 401.277 142.508 385.886 C 155.77 387.074 176.539 387.347 188.176 393.289 C 183.664 391.812 188.098 401.589 188.914 408.012 C 190.215 418.203 191.395 428.414 192.586 438.621 C 192.965 441.874 195.141 445.003 198.828 444.863 C 210.594 444.413 222.695 445.16 234.406 444.078 C 247.152 442.902 246.703 440.331 248.121 452.882 C 249.41 464.308 250.293 475.78 251.106 487.249 C 249.664 487.765 248.199 488.222 246.699 488.597 L 246.7 488.597 Z M 252.259 430.777 C 252.235 430.777 252.216 430.765 252.196 430.765 C 236.352 431.711 220.489 431.73 204.63 432.199 C 204.099 420.082 204.165 400.84 199.747 389.64 C 228.325 361.624 252.958 331.015 280.22 301.82 C 310.975 268.882 343.6 237.566 375.392 205.632 C 391.912 220.085 408.24 234.757 423.943 250.05 C 368.209 311.714 311.553 372.51 252.263 430.78 L 252.259 430.777 Z M 360.619 381.504 C 340.83 402.152 321.049 422.816 301.213 443.418 C 289.162 455.934 277.682 471.512 263.193 481.106 C 262.263 467.891 261.123 454.653 259.15 441.563 C 319.17 382.7 376.46 321.203 432.83 258.853 C 440.658 266.744 448.291 274.83 455.662 283.158 C 423.787 315.763 392.162 348.596 360.619 381.506 L 360.619 381.504 Z M 472.039 266.324 C 470.441 267.949 468.871 269.59 467.277 271.215 C 432.031 231.406 390.855 197.211 350.887 162.245 C 354.184 159.057 357.496 155.878 360.805 152.71 C 403.258 183.835 439.254 224.894 476.285 262.1 C 474.863 263.506 473.43 264.916 472.043 266.326 L 472.039 266.324 Z M 485.203 253.347 C 480.992 249.121 476.785 244.871 472.598 240.57 C 477.699 234.691 483.008 229.008 488.563 223.55 C 493.082 228.003 497.824 232.335 502.883 236.53 C 496.902 242.198 490.965 247.792 485.203 253.346 L 485.203 253.347 Z M 511.953 227.898 C 492.051 211.418 476.875 192.222 458.965 173.238 C 440.133 153.269 419.938 134.648 399.676 116.14 C 403.371 112.726 407.066 109.296 410.785 105.898 C 448.34 142.839 485.422 180.253 521.995 218.158 C 518.671 221.439 515.311 224.674 511.948 227.897 L 511.953 227.898 Z M 577.859 147.312 C 567.152 168.675 551.226 188.042 533.691 206.304 C 497.293 168.581 460.398 131.366 423.031 94.594 C 423.855 93.848 424.648 93.086 425.472 92.344 C 450.644 69.641 482.066 35.656 520.015 46.149 C 537.566 51.005 551.925 66.286 563.773 79.379 C 583.015 100.633 592.164 118.766 577.855 147.309 L 577.859 147.312 Z"/>
</svg>